# Tiled2Unity generated file. Do not modify by hand.
# Wavefront file for 'house_mesh_0002.obj'

# Vertices (Count = 144)
v -688 -320 0
v -704 -320 0
v -704 -304 0
v -688 -304 0
v -640 -320 0
v -656 -320 0
v -656 -304 0
v -640 -304 0
v -624 -320 0
v -640 -320 0
v -640 -304 0
v -624 -304 0
v -576 -320 0
v -592 -320 0
v -592 -304 0
v -576 -304 0
v -688 -336 0
v -704 -336 0
v -704 -320 0
v -688 -320 0
v -672 -336 0
v -688 -336 0
v -688 -320 0
v -672 -320 0
v -640 -336 0
v -656 -336 0
v -656 -320 0
v -640 -320 0
v -624 -336 0
v -640 -336 0
v -640 -320 0
v -624 -320 0
v -592 -336 0
v -608 -336 0
v -608 -320 0
v -592 -320 0
v -576 -336 0
v -592 -336 0
v -592 -320 0
v -576 -320 0
v -688 -352 0
v -704 -352 0
v -704 -336 0
v -688 -336 0
v -672 -352 0
v -688 -352 0
v -688 -336 0
v -672 -336 0
v -656 -352 0
v -672 -352 0
v -672 -336 0
v -656 -336 0
v -640 -352 0
v -656 -352 0
v -656 -336 0
v -640 -336 0
v -624 -352 0
v -640 -352 0
v -640 -336 0
v -624 -336 0
v -608 -352 0
v -624 -352 0
v -624 -336 0
v -608 -336 0
v -592 -352 0
v -608 -352 0
v -608 -336 0
v -592 -336 0
v -576 -352 0
v -592 -352 0
v -592 -336 0
v -576 -336 0
v -656 -368 0
v -672 -368 0
v -672 -352 0
v -656 -352 0
v -608 -368 0
v -624 -368 0
v -624 -352 0
v -608 -352 0
v -688 -384 0
v -704 -384 0
v -704 -368 0
v -688 -368 0
v -608 -384 0
v -624 -384 0
v -624 -368 0
v -608 -368 0
v -592 -384 0
v -608 -384 0
v -608 -368 0
v -592 -368 0
v -576 -384 0
v -592 -384 0
v -592 -368 0
v -576 -368 0
v -688 -416 0
v -704 -416 0
v -704 -400 0
v -688 -400 0
v -688 -432 0
v -704 -432 0
v -704 -416 0
v -688 -416 0
v -608 -448 0
v -624 -448 0
v -624 -432 0
v -608 -432 0
v -592 -448 0
v -608 -448 0
v -608 -432 0
v -592 -432 0
v -576 -448 0
v -592 -448 0
v -592 -432 0
v -576 -432 0
v -688 -464 0
v -704 -464 0
v -704 -448 0
v -688 -448 0
v -608 -464 0
v -624 -464 0
v -624 -448 0
v -608 -448 0
v -592 -464 0
v -608 -464 0
v -608 -448 0
v -592 -448 0
v -576 -464 0
v -592 -464 0
v -592 -448 0
v -576 -448 0
v -608 -480 0
v -624 -480 0
v -624 -464 0
v -608 -464 0
v -592 -480 0
v -608 -480 0
v -608 -464 0
v -592 -464 0
v -576 -480 0
v -592 -480 0
v -592 -464 0
v -576 -464 0

# Texture cooridinates (Count = 104)
vt 0.9483471 0.9695817
vt 0.9648761 0.9695817
vt 0.9648761 1
vt 0.9483471 1
vt 0.8780992 0.9695817
vt 0.8946281 0.9695817
vt 0.8946281 1
vt 0.8780992 1
vt 0.9483471 0.9372624
vt 0.9648761 0.9372624
vt 0.9648761 0.9676806
vt 0.9483471 0.9676806
vt 0.7727273 0.904943
vt 0.7892562 0.904943
vt 0.7892562 0.9353612
vt 0.7727273 0.9353612
vt 0.8780992 0.9372624
vt 0.8946281 0.9372624
vt 0.8946281 0.9676806
vt 0.8780992 0.9676806
vt 0.3161157 0.7110266
vt 0.3326446 0.7110266
vt 0.3326446 0.7414449
vt 0.3161157 0.7414449
vt 0.7727273 0.8726236
vt 0.7892562 0.8726236
vt 0.7892562 0.9030418
vt 0.7727273 0.9030418
vt 0.9659091 0.6787072
vt 0.982438 0.6787072
vt 0.982438 0.7091255
vt 0.9659091 0.7091255
vt 0.8780992 0.904943
vt 0.8946281 0.904943
vt 0.8946281 0.9353612
vt 0.8780992 0.9353612
vt 0.9659091 0.6463878
vt 0.982438 0.6463878
vt 0.982438 0.6768061
vt 0.9659091 0.6768061
vt 0.5092975 0.9695817
vt 0.5258265 0.9695817
vt 0.5258265 1
vt 0.5092975 1
vt 0.3863636 0.8726236
vt 0.4028926 0.8726236
vt 0.4028926 0.9030418
vt 0.3863636 0.9030418
vt 0.4390496 0.8403042
vt 0.4555785 0.8403042
vt 0.4555785 0.8707224
vt 0.4390496 0.8707224
vt 0.3688017 0.8726236
vt 0.3853306 0.8726236
vt 0.3853306 0.9030418
vt 0.3688017 0.9030418
vt 0.4917355 0.8726236
vt 0.5082645 0.8726236
vt 0.5082645 0.9030418
vt 0.4917355 0.9030418
vt 0.4917355 0.8403042
vt 0.5082645 0.8403042
vt 0.5082645 0.8707224
vt 0.4917355 0.8707224
vt 0.2107438 0.743346
vt 0.2272727 0.743346
vt 0.2272727 0.7737643
vt 0.2107438 0.7737643
vt 0.1931818 0.743346
vt 0.2097107 0.743346
vt 0.2097107 0.7737643
vt 0.1931818 0.7737643
vt 0.1756198 0.743346
vt 0.1921488 0.743346
vt 0.1921488 0.7737643
vt 0.1756198 0.7737643
vt 0.4039256 0.7756654
vt 0.4204545 0.7756654
vt 0.4204545 0.8060837
vt 0.4039256 0.8060837
vt 0.2107438 0.7110266
vt 0.2272727 0.7110266
vt 0.2272727 0.7414449
vt 0.2107438 0.7414449
vt 0.1931818 0.7110266
vt 0.2097107 0.7110266
vt 0.2097107 0.7414449
vt 0.1931818 0.7414449
vt 0.1756198 0.7110266
vt 0.1921488 0.7110266
vt 0.1921488 0.7414449
vt 0.1756198 0.7414449
vt 0.2107438 0.6787072
vt 0.2272727 0.6787072
vt 0.2272727 0.7091255
vt 0.2107438 0.7091255
vt 0.1931818 0.6787072
vt 0.2097107 0.6787072
vt 0.2097107 0.7091255
vt 0.1931818 0.7091255
vt 0.1756198 0.6787072
vt 0.1921488 0.6787072
vt 0.1921488 0.7091255
vt 0.1756198 0.7091255

# Normal
vn 0 0 -1

# Mesh description
g house_mesh_0002

# Faces
f 1/1/1 2/2/1 3/3/1 4/4/1
f 5/5/1 6/6/1 7/7/1 8/8/1
f 9/5/1 10/6/1 11/7/1 12/8/1
f 13/1/1 14/2/1 15/3/1 16/4/1
f 17/9/1 18/10/1 19/11/1 20/12/1
f 21/13/1 22/14/1 23/15/1 24/16/1
f 25/17/1 26/18/1 27/19/1 28/20/1
f 29/17/1 30/18/1 31/19/1 32/20/1
f 33/13/1 34/14/1 35/15/1 36/16/1
f 37/9/1 38/10/1 39/11/1 40/12/1
f 41/21/1 42/22/1 43/23/1 44/24/1
f 45/25/1 46/26/1 47/27/1 48/28/1
f 49/29/1 50/30/1 51/31/1 52/32/1
f 53/33/1 54/34/1 55/35/1 56/36/1
f 57/33/1 58/34/1 59/35/1 60/36/1
f 61/29/1 62/30/1 63/31/1 64/32/1
f 65/25/1 66/26/1 67/27/1 68/28/1
f 69/21/1 70/22/1 71/23/1 72/24/1
f 73/37/1 74/38/1 75/39/1 76/40/1
f 77/37/1 78/38/1 79/39/1 80/40/1
f 81/41/1 82/42/1 83/43/1 84/44/1
f 85/45/1 86/46/1 87/47/1 88/48/1
f 89/49/1 90/50/1 91/51/1 92/52/1
f 93/53/1 94/54/1 95/55/1 96/56/1
f 97/57/1 98/58/1 99/59/1 100/60/1
f 101/61/1 102/62/1 103/63/1 104/64/1
f 105/65/1 106/66/1 107/67/1 108/68/1
f 109/69/1 110/70/1 111/71/1 112/72/1
f 113/73/1 114/74/1 115/75/1 116/76/1
f 117/77/1 118/78/1 119/79/1 120/80/1
f 121/81/1 122/82/1 123/83/1 124/84/1
f 125/85/1 126/86/1 127/87/1 128/88/1
f 129/89/1 130/90/1 131/91/1 132/92/1
f 133/93/1 134/94/1 135/95/1 136/96/1
f 137/97/1 138/98/1 139/99/1 140/100/1
f 141/101/1 142/102/1 143/103/1 144/104/1

